<svg width="525" height="1176" viewBox="0 0 525 1176" fill="none" xmlns="http://www.w3.org/2000/svg">
<path d="M-260.717 1690.35L266.072 360.649" stroke="#00A4B8" stroke-miterlimit="10"/>
<path d="M248.425 347.339C252.521 353.356 89.4666 790.137 96.9551 791.56C104.444 792.982 -285.951 1671.52 -287.372 1678.99" stroke="#00A4B8" stroke-miterlimit="10"/>
<path d="M230.765 334.039C238.956 346.071 88.6696 775.864 103.623 778.705C118.588 781.548 -311.197 1652.69 -314.04 1667.65" stroke="#00A4B8" stroke-miterlimit="10"/>
<path d="M213.118 320.729C225.405 338.778 87.8766 761.568 110.318 765.831C132.76 770.094 -336.429 1633.85 -340.692 1656.29" stroke="#00A4B8" stroke-miterlimit="10"/>
<path d="M195.472 307.419C211.854 331.484 87.0935 747.285 117.011 752.969C146.929 758.652 -361.661 1615.01 -367.347 1644.94" stroke="#00A4B8" stroke-miterlimit="10"/>
<path d="M177.811 294.119C198.279 324.186 86.2841 733.01 123.691 740.116C161.097 747.222 -386.895 1596.18 -394.001 1633.59" stroke="#00A4B8" stroke-miterlimit="10"/>
<path d="M160.164 280.808C184.727 316.892 85.5008 718.728 130.384 727.254C175.267 735.78 -412.129 1577.35 -420.655 1622.23" stroke="#00A4B8" stroke-miterlimit="10"/>
<path d="M142.506 267.496C171.164 309.596 84.6937 704.441 137.065 714.389C189.436 724.338 -437.361 1558.51 -447.31 1610.88" stroke="#00A4B8" stroke-miterlimit="10"/>
<path d="M124.857 254.198C157.611 302.315 83.9105 690.158 143.746 701.525C203.582 712.892 -462.607 1539.68 -473.976 1599.53" stroke="#00A4B8" stroke-miterlimit="10"/>
<path d="M107.198 240.886C144.048 295.019 83.1036 675.872 150.428 688.661C217.752 701.45 -487.839 1520.84 -500.628 1588.16" stroke="#00A4B8" stroke-miterlimit="10"/>
<path d="M89.5517 227.576C130.497 287.725 82.3201 661.589 157.121 675.798C231.922 690.008 -513.073 1502.01 -527.283 1576.81" stroke="#00A4B8" stroke-miterlimit="10"/>
<path d="M71.8911 214.276C116.932 280.441 81.511 647.314 163.8 662.946C246.09 678.578 -538.307 1483.18 -553.939 1565.47" stroke="#00A4B8" stroke-miterlimit="10"/>
<path d="M54.2444 200.966C103.38 273.148 80.7299 633.02 170.496 650.072C260.262 667.124 -563.539 1464.34 -580.592 1554.11" stroke="#00A4B8" stroke-miterlimit="10"/>
<path d="M36.5978 187.656C89.8291 265.854 79.9348 618.735 177.177 637.208C274.419 655.68 -588.783 1445.5 -607.258 1542.75" stroke="#00A4B8" stroke-miterlimit="10"/>
<path d="M18.937 174.356C76.2638 258.57 79.1374 604.463 183.856 624.355C288.575 644.248 -614.02 1426.68 -633.912 1531.4" stroke="#00A4B8" stroke-miterlimit="10"/>
<path d="M1.29045 161.046C62.703 251.262 78.3422 590.178 190.549 611.493C302.757 632.808 -639.251 1407.84 -660.567 1520.05" stroke="#00A4B8" stroke-miterlimit="10"/>
<path d="M-16.368 147.734C49.14 243.966 77.5494 575.881 197.233 598.617C316.917 621.352 -664.486 1389.02 -687.221 1508.7" stroke="#00A4B8" stroke-miterlimit="10"/>
<path d="M-34.017 134.436C35.5865 236.685 76.7518 561.609 203.924 585.767C331.096 609.925 -689.718 1370.18 -713.876 1497.35" stroke="#00A4B8" stroke-miterlimit="10"/>
<path d="M-51.6754 121.123C22.0235 229.388 75.9568 547.324 210.594 572.9C345.23 598.475 -714.964 1351.34 -740.542 1485.99" stroke="#00A4B8" stroke-miterlimit="10"/>
<path d="M-69.3221 107.813C8.47234 222.095 75.1616 533.039 217.287 560.038C359.412 587.036 -740.196 1332.5 -767.196 1474.64" stroke="#00A4B8" stroke-miterlimit="10"/>
<path d="M-86.971 94.515C-5.09077 214.799 74.3664 518.754 223.98 547.175C373.594 575.596 -765.418 1313.68 -793.836 1463.28" stroke="#00A4B8" stroke-miterlimit="10"/>
<path d="M-104.629 81.2028C-18.6441 207.517 73.5713 504.47 230.662 534.311C387.752 564.152 -790.662 1294.84 -820.503 1451.93" stroke="#00A4B8" stroke-miterlimit="10"/>
<path d="M-122.276 67.8929C-32.2073 200.221 72.7761 490.185 237.343 521.447C401.91 552.708 -815.908 1276.01 -847.169 1440.57" stroke="#00A4B8" stroke-miterlimit="10"/>
<path d="M-139.937 54.5928C-45.7583 192.928 71.9811 475.901 244.036 508.585C416.091 541.269 -841.13 1257.18 -873.812 1429.22" stroke="#00A4B8" stroke-miterlimit="10"/>
<path d="M-157.583 41.2829C-59.3214 185.632 71.1836 461.628 250.715 495.732C430.247 529.836 -866.376 1238.35 -900.48 1417.88" stroke="#00A4B8" stroke-miterlimit="10"/>
<path d="M-175.242 27.9704C-72.8747 178.35 70.3886 447.343 257.409 482.87C444.429 518.397 -891.608 1219.51 -927.132 1406.52" stroke="#00A4B8" stroke-miterlimit="10"/>
<path d="M-192.891 14.6724C-86.4378 171.054 69.5934 433.058 264.09 470.005C458.587 506.952 -916.842 1200.68 -953.787 1395.16" stroke="#00A4B8" stroke-miterlimit="10"/>
<path d="M-210.549 1.36046C-99.9889 163.761 68.7982 418.774 270.771 457.141C472.744 495.509 -942.074 1181.84 -980.441 1383.81" stroke="#00A4B8" stroke-miterlimit="10"/>
<path d="M-228.196 -11.9497C-113.552 156.464 68.0031 404.489 277.465 444.279C486.926 484.069 -967.308 1163.01 -1007.1 1372.46" stroke="#00A4B8" stroke-miterlimit="10"/>
<path d="M-245.845 -25.2478C-127.105 149.183 67.2079 390.205 284.146 431.415C501.084 472.625 -992.54 1144.17 -1033.75 1361.11" stroke="#00A4B8" stroke-miterlimit="10"/>
<path d="M-263.503 -38.5599C-140.668 141.887 66.4247 375.922 290.827 418.55C515.23 461.178 -1017.79 1125.34 -1060.42 1349.76" stroke="#00A4B8" stroke-miterlimit="10"/>
<path d="M-281.15 -51.8701C-154.22 134.593 65.6295 361.637 297.521 405.688C529.412 449.738 -1043.02 1106.5 -1087.07 1338.39" stroke="#00A4B8" stroke-miterlimit="10"/>
<path d="M-298.811 -65.1704C-167.785 127.309 64.8202 347.362 304.2 392.835C543.579 438.308 -1068.25 1087.67 -1113.73 1327.05" stroke="#00A4B8" stroke-miterlimit="10"/>
<path d="M-316.457 -78.4801C-181.348 120.013 64.0393 333.068 310.895 379.962C557.751 426.855 -1093.49 1068.84 -1140.38 1315.7" stroke="#00A4B8" stroke-miterlimit="10"/>
<path d="M-334.116 -91.7926C-194.899 112.72 63.242 318.795 317.574 367.109C571.907 415.422 -1118.72 1050 -1167.03 1304.34" stroke="#00A4B8" stroke-miterlimit="10"/>
<path d="M-351.765 -105.09C-208.462 105.424 62.4468 304.511 324.256 354.245C586.065 403.979 -1143.95 1031.18 -1193.69 1292.98" stroke="#00A4B8" stroke-miterlimit="10"/>
<path d="M-369.423 -118.403C-222.025 98.1278 61.6396 290.224 330.937 341.38C600.235 392.537 -1169.2 1012.33 -1220.35 1281.63" stroke="#00A4B8" stroke-miterlimit="10"/>
<path d="M-387.07 -131.712C-235.576 90.8344 60.8564 275.942 337.63 328.518C614.404 381.095 -1194.43 993.505 -1247.01 1270.28" stroke="#00A4B8" stroke-miterlimit="10"/>
<path d="M-404.719 -145.01C-249.13 83.5527 60.0612 261.657 344.324 315.656C628.586 369.655 -1219.66 974.676 -1273.66 1258.93" stroke="#00A4B8" stroke-miterlimit="10"/>
<path d="M-422.377 -158.323C-262.693 76.2565 59.2661 247.372 351.005 302.791C642.744 358.211 -1244.9 955.836 -1300.32 1247.57" stroke="#00A4B8" stroke-miterlimit="10"/>
<path d="M-440.024 -171.633C-276.244 68.9631 58.471 233.088 357.686 289.927C656.902 346.767 -1270.13 937.008 -1326.97 1236.22" stroke="#00A4B8" stroke-miterlimit="10"/>
<path d="M-457.684 -184.933C-289.809 61.679 57.6737 218.815 364.366 277.075C671.058 335.335 -1295.37 918.165 -1353.64 1224.87" stroke="#00A4B8" stroke-miterlimit="10"/>
<path d="M-475.331 -198.243C-303.361 54.3856 56.8806 204.518 371.061 264.201C685.241 323.883 -1320.61 899.337 -1380.29 1213.51" stroke="#00A4B8" stroke-miterlimit="10"/>
<path d="M-492.99 -211.555C-316.923 47.0894 56.0856 190.234 377.742 251.336C699.399 312.439 -1345.84 880.509 -1406.94 1202.17" stroke="#00A4B8" stroke-miterlimit="10"/>
<path d="M-510.638 -224.853C-330.477 39.8077 55.2882 175.961 384.433 238.486C713.579 301.011 -1371.07 861.668 -1433.6 1190.81" stroke="#00A4B8" stroke-miterlimit="10"/>
<path d="M-528.285 -238.164C-344.038 32.4996 54.5049 161.678 391.115 225.621C727.725 289.564 -1396.31 842.84 -1460.25 1179.46" stroke="#00A4B8" stroke-miterlimit="10"/>
<path d="M-545.944 -251.475C-357.603 25.2159 53.6978 147.392 397.796 212.757C741.895 278.123 -1421.54 824 -1486.91 1168.11" stroke="#00A4B8" stroke-miterlimit="10"/>
<path d="M-563.592 -264.774C-371.154 17.9221 52.9146 133.109 404.489 199.895C756.064 266.681 -1446.79 805.169 -1513.57 1156.74" stroke="#00A4B8" stroke-miterlimit="10"/>
<path d="M-581.251 -278.086C-384.717 10.6265 52.1076 118.822 411.171 187.031C770.234 255.239 -1472.02 786.341 -1540.23 1145.39" stroke="#00A4B8" stroke-miterlimit="10"/>
<path d="M-598.898 -291.396C-398.268 3.33254 51.3242 104.54 417.864 174.168C784.404 243.797 -1497.25 767.5 -1566.88 1134.04" stroke="#00A4B8" stroke-miterlimit="10"/>
<path d="M-616.558 -304.696C-411.834 -3.95141 50.5149 90.2647 424.543 161.316C798.571 232.367 -1522.49 748.672 -1593.54 1122.69" stroke="#00A4B8" stroke-miterlimit="10"/>
<path d="M-634.205 -318.006C-425.385 -11.2448 49.7341 75.9706 431.227 148.44C812.72 220.909 -1547.72 729.832 -1620.19 1111.34" stroke="#00A4B8" stroke-miterlimit="10"/>
</svg>
