<svg width="955" height="1187" viewBox="0 0 955 1187" fill="none" xmlns="http://www.w3.org/2000/svg">
<g clip-path="url(#clip0_1_1360)">
<path d="M-219.717 1701.35L307.072 371.649" stroke="#00A4B8" stroke-miterlimit="10"/>
<path d="M289.425 358.339C293.521 364.356 130.467 801.137 137.955 802.56C145.444 803.982 -244.951 1682.52 -246.372 1689.99" stroke="#00A4B8" stroke-miterlimit="10"/>
<path d="M271.765 345.039C279.956 357.071 129.67 786.864 144.623 789.705C159.588 792.548 -270.197 1663.69 -273.04 1678.65" stroke="#00A4B8" stroke-miterlimit="10"/>
<path d="M254.118 331.729C266.405 349.778 128.877 772.568 151.318 776.831C173.76 781.094 -295.429 1644.85 -299.692 1667.29" stroke="#00A4B8" stroke-miterlimit="10"/>
<path d="M236.472 318.419C252.854 342.484 128.093 758.285 158.011 763.969C187.929 769.652 -320.661 1626.01 -326.347 1655.94" stroke="#00A4B8" stroke-miterlimit="10"/>
<path d="M218.811 305.119C239.279 335.186 127.284 744.01 164.691 751.116C202.097 758.222 -345.895 1607.18 -353.001 1644.59" stroke="#00A4B8" stroke-miterlimit="10"/>
<path d="M201.164 291.808C225.727 327.892 126.501 729.728 171.384 738.254C216.267 746.78 -371.129 1588.35 -379.655 1633.23" stroke="#00A4B8" stroke-miterlimit="10"/>
<path d="M183.506 278.496C212.164 320.596 125.694 715.441 178.065 725.389C230.436 735.338 -396.361 1569.51 -406.31 1621.88" stroke="#00A4B8" stroke-miterlimit="10"/>
<path d="M165.857 265.198C198.611 313.315 124.911 701.158 184.746 712.525C244.582 723.892 -421.607 1550.68 -432.976 1610.53" stroke="#00A4B8" stroke-miterlimit="10"/>
<path d="M148.198 251.886C185.048 306.019 124.104 686.872 191.428 699.661C258.752 712.45 -446.839 1531.84 -459.628 1599.16" stroke="#00A4B8" stroke-miterlimit="10"/>
<path d="M130.552 238.576C171.497 298.725 123.32 672.589 198.121 686.798C272.922 701.008 -472.073 1513.01 -486.283 1587.81" stroke="#00A4B8" stroke-miterlimit="10"/>
<path d="M112.891 225.276C157.932 291.441 122.511 658.314 204.8 673.946C287.09 689.578 -497.307 1494.18 -512.939 1576.47" stroke="#00A4B8" stroke-miterlimit="10"/>
<path d="M95.2444 211.966C144.38 284.148 121.73 644.02 211.496 661.072C301.262 678.124 -522.539 1475.34 -539.592 1565.11" stroke="#00A4B8" stroke-miterlimit="10"/>
<path d="M77.5978 198.656C130.829 276.854 120.935 629.735 218.177 648.208C315.419 666.68 -547.783 1456.5 -566.258 1553.75" stroke="#00A4B8" stroke-miterlimit="10"/>
<path d="M59.937 185.356C117.264 269.57 120.137 615.463 224.856 635.355C329.575 655.248 -573.02 1437.68 -592.912 1542.4" stroke="#00A4B8" stroke-miterlimit="10"/>
<path d="M42.2904 172.046C103.703 262.262 119.342 601.178 231.549 622.493C343.757 643.808 -598.251 1418.84 -619.567 1531.05" stroke="#00A4B8" stroke-miterlimit="10"/>
<path d="M24.632 158.734C90.14 254.966 118.549 586.881 238.233 609.617C357.917 632.352 -623.486 1400.02 -646.221 1519.7" stroke="#00A4B8" stroke-miterlimit="10"/>
<path d="M6.98301 145.436C76.5865 247.685 117.752 572.609 244.924 596.767C372.096 620.925 -648.718 1381.18 -672.876 1508.35" stroke="#00A4B8" stroke-miterlimit="10"/>
<path d="M-10.6754 132.123C63.0235 240.388 116.957 558.324 251.594 583.9C386.23 609.475 -673.964 1362.34 -699.542 1496.99" stroke="#00A4B8" stroke-miterlimit="10"/>
<path d="M-28.3221 118.813C49.4723 233.095 116.162 544.039 258.287 571.038C400.412 598.036 -699.196 1343.5 -726.196 1485.64" stroke="#00A4B8" stroke-miterlimit="10"/>
<path d="M-45.971 105.515C35.9092 225.799 115.366 529.754 264.98 558.175C414.594 586.596 -724.418 1324.68 -752.836 1474.28" stroke="#00A4B8" stroke-miterlimit="10"/>
<path d="M-63.6294 92.2028C22.3559 218.517 114.571 515.47 271.662 545.311C428.752 575.152 -749.662 1305.84 -779.503 1462.93" stroke="#00A4B8" stroke-miterlimit="10"/>
<path d="M-81.2761 78.8929C8.79271 211.221 113.776 501.185 278.343 532.447C442.91 563.708 -774.908 1287.01 -806.169 1451.57" stroke="#00A4B8" stroke-miterlimit="10"/>
<path d="M-98.9368 65.5928C-4.75829 203.928 112.981 486.901 285.036 519.585C457.091 552.269 -800.13 1268.18 -832.812 1440.22" stroke="#00A4B8" stroke-miterlimit="10"/>
<path d="M-116.583 52.2829C-18.3214 196.632 112.184 472.628 291.715 506.732C471.247 540.836 -825.376 1249.35 -859.48 1428.88" stroke="#00A4B8" stroke-miterlimit="10"/>
<path d="M-134.242 38.9704C-31.8747 189.35 111.389 458.343 298.409 493.87C485.429 529.397 -850.608 1230.51 -886.132 1417.52" stroke="#00A4B8" stroke-miterlimit="10"/>
<path d="M-151.891 25.6724C-45.4378 182.054 110.593 444.058 305.09 481.005C499.587 517.952 -875.842 1211.68 -912.787 1406.16" stroke="#00A4B8" stroke-miterlimit="10"/>
<path d="M-169.549 12.3605C-58.9889 174.761 109.798 429.774 311.771 468.141C513.744 506.509 -901.074 1192.84 -939.441 1394.81" stroke="#00A4B8" stroke-miterlimit="10"/>
<path d="M-187.196 -0.949746C-72.552 167.464 109.003 415.489 318.465 455.279C527.926 495.069 -926.308 1174.01 -966.096 1383.46" stroke="#00A4B8" stroke-miterlimit="10"/>
<path d="M-204.845 -14.2478C-86.1054 160.183 108.208 401.205 325.146 442.415C542.084 483.625 -951.54 1155.17 -992.75 1372.11" stroke="#00A4B8" stroke-miterlimit="10"/>
<path d="M-222.503 -27.5599C-99.6684 152.887 107.425 386.922 331.827 429.55C556.23 472.178 -976.786 1136.34 -1019.42 1360.76" stroke="#00A4B8" stroke-miterlimit="10"/>
<path d="M-240.15 -40.8701C-113.22 145.593 106.63 372.637 338.521 416.688C570.412 460.738 -1002.02 1117.5 -1046.07 1349.39" stroke="#00A4B8" stroke-miterlimit="10"/>
<path d="M-257.811 -54.1704C-126.785 138.309 105.82 358.362 345.2 403.835C584.579 449.308 -1027.25 1098.67 -1072.73 1338.05" stroke="#00A4B8" stroke-miterlimit="10"/>
<path d="M-275.457 -67.4801C-140.348 131.013 105.039 344.068 351.895 390.962C598.751 437.855 -1052.49 1079.84 -1099.38 1326.7" stroke="#00A4B8" stroke-miterlimit="10"/>
<path d="M-293.116 -80.7926C-153.899 123.72 104.242 329.795 358.574 378.109C612.907 426.422 -1077.72 1061 -1126.03 1315.34" stroke="#00A4B8" stroke-miterlimit="10"/>
<path d="M-310.765 -94.0901C-167.462 116.424 103.447 315.511 365.256 365.245C627.065 414.979 -1102.95 1042.18 -1152.69 1303.98" stroke="#00A4B8" stroke-miterlimit="10"/>
<path d="M-328.423 -107.403C-181.025 109.128 102.64 301.224 371.937 352.38C641.235 403.537 -1128.2 1023.33 -1179.35 1292.63" stroke="#00A4B8" stroke-miterlimit="10"/>
<path d="M-346.07 -120.712C-194.576 101.834 101.856 286.942 378.63 339.518C655.404 392.095 -1153.43 1004.5 -1206.01 1281.28" stroke="#00A4B8" stroke-miterlimit="10"/>
<path d="M-363.719 -134.01C-208.13 94.5527 101.061 272.657 385.324 326.656C669.586 380.655 -1178.66 985.676 -1232.66 1269.93" stroke="#00A4B8" stroke-miterlimit="10"/>
<path d="M-381.377 -147.323C-221.693 87.2565 100.266 258.372 392.005 313.791C683.744 369.211 -1203.9 966.836 -1259.32 1258.57" stroke="#00A4B8" stroke-miterlimit="10"/>
<path d="M-399.024 -160.633C-235.244 79.9631 99.471 244.088 398.686 300.927C697.902 357.767 -1229.13 948.008 -1285.97 1247.22" stroke="#00A4B8" stroke-miterlimit="10"/>
<path d="M-416.684 -173.933C-248.809 72.679 98.6737 229.815 405.366 288.075C712.058 346.335 -1254.37 929.165 -1312.64 1235.87" stroke="#00A4B8" stroke-miterlimit="10"/>
<path d="M-434.331 -187.243C-262.361 65.3856 97.8806 215.518 412.061 275.201C726.241 334.883 -1279.61 910.337 -1339.29 1224.51" stroke="#00A4B8" stroke-miterlimit="10"/>
<path d="M-451.99 -200.555C-275.923 58.0894 97.0856 201.234 418.742 262.336C740.399 323.439 -1304.84 891.509 -1365.94 1213.17" stroke="#00A4B8" stroke-miterlimit="10"/>
<path d="M-469.638 -213.853C-289.477 50.8077 96.2882 186.961 425.433 249.486C754.579 312.011 -1330.07 872.668 -1392.6 1201.81" stroke="#00A4B8" stroke-miterlimit="10"/>
<path d="M-487.285 -227.164C-303.038 43.4996 95.5049 172.678 432.115 236.621C768.725 300.564 -1355.31 853.84 -1419.25 1190.46" stroke="#00A4B8" stroke-miterlimit="10"/>
<path d="M-504.944 -240.475C-316.603 36.2159 94.6978 158.392 438.796 223.757C782.895 289.123 -1380.54 835 -1445.91 1179.11" stroke="#00A4B8" stroke-miterlimit="10"/>
<path d="M-522.592 -253.774C-330.154 28.9221 93.9146 144.109 445.489 210.895C797.064 277.681 -1405.79 816.169 -1472.57 1167.74" stroke="#00A4B8" stroke-miterlimit="10"/>
<path d="M-540.251 -267.086C-343.717 21.6265 93.1076 129.822 452.171 198.031C811.234 266.239 -1431.02 797.341 -1499.23 1156.39" stroke="#00A4B8" stroke-miterlimit="10"/>
<path d="M-557.898 -280.396C-357.268 14.3325 92.3242 115.54 458.864 185.168C825.404 254.797 -1456.25 778.5 -1525.88 1145.04" stroke="#00A4B8" stroke-miterlimit="10"/>
<path d="M-575.558 -293.696C-370.834 7.04859 91.5149 101.265 465.543 172.316C839.571 243.367 -1481.49 759.672 -1552.54 1133.69" stroke="#00A4B8" stroke-miterlimit="10"/>
<path d="M-593.205 -307.006C-384.385 -0.244841 90.7341 86.9706 472.227 159.44C853.72 231.909 -1506.72 740.832 -1579.19 1122.34" stroke="#00A4B8" stroke-miterlimit="10"/>
</g>
<defs>
<clipPath id="clip0_1_1360">
<rect width="971" height="1187" fill="white" transform="translate(-16)"/>
</clipPath>
</defs>
</svg>
