<svg width="315" height="394" viewBox="0 0 315 394" fill="none" xmlns="http://www.w3.org/2000/svg">
<mask id="mask0_1_934" style="mask-type:alpha" maskUnits="userSpaceOnUse" x="0" y="0" width="315" height="394">
<rect width="315" height="394" fill="#C4C4C4"/>
</mask>
<g mask="url(#mask0_1_934)">
<path d="M-83.6738 568.012L143.925 88.1182" stroke="#00A4B8" stroke-miterlimit="10"/>
<path d="M138.067 82.5071C138.653 84.6038 66.0912 242.226 67.8595 242.645C69.6278 243.064 -91.927 560.835 -92.8264 563.517" stroke="#00A4B8" stroke-miterlimit="10"/>
<path d="M132.269 76.9016C133.445 81.0979 64.2991 236.186 67.8448 237.024C71.3933 237.862 -100.177 553.677 -101.985 559.049" stroke="#00A4B8" stroke-miterlimit="10"/>
<path d="M126.564 71.2926C128.337 77.5916 62.6168 230.146 67.9619 231.404C73.307 232.662 -108.414 546.542 -111.136 554.604" stroke="#00A4B8" stroke-miterlimit="10"/>
<path d="M121.249 65.6888C123.627 74.0961 61.2727 224.161 68.4413 225.839C75.6099 227.518 -116.637 539.544 -120.289 550.307" stroke="#00A4B8" stroke-miterlimit="10"/>
<path d="M117.945 60.1127C120.958 70.6432 61.5372 218.441 70.6272 220.545C79.7171 222.648 -124.813 533.292 -129.442 546.778" stroke="#00A4B8" stroke-miterlimit="10"/>
<path d="M114.497 54.5355C118.161 67.2045 61.8282 212.714 72.8779 215.243C83.9276 217.773 -132.969 527.021 -138.595 543.243" stroke="#00A4B8" stroke-miterlimit="10"/>
<path d="M110.908 48.9598C115.236 63.7774 62.1295 206.98 75.1792 209.938C88.2289 212.896 -141.105 520.725 -147.748 539.701" stroke="#00A4B8" stroke-miterlimit="10"/>
<path d="M107.197 43.3899C112.2 60.3661 62.451 201.241 77.5288 204.628C92.6066 208.016 -149.229 514.411 -156.905 536.15" stroke="#00A4B8" stroke-miterlimit="10"/>
<path d="M103.37 37.8178C109.058 56.9624 62.7799 195.496 79.9228 199.315C97.0657 203.135 -157.332 508.075 -166.056 532.588" stroke="#00A4B8" stroke-miterlimit="10"/>
<path d="M99.4413 32.2488C105.825 53.5714 63.1269 189.747 82.3602 194.001C101.594 198.254 -165.423 501.723 -175.21 529.024" stroke="#00A4B8" stroke-miterlimit="10"/>
<path d="M95.4118 26.6849C102.499 50.195 63.4768 183.996 84.8295 188.686C106.182 193.375 -173.5 495.352 -184.364 525.456" stroke="#00A4B8" stroke-miterlimit="10"/>
<path d="M91.2988 21.1197C99.0978 46.8267 63.8458 178.233 87.3389 183.36C110.832 188.487 -181.563 488.957 -193.515 521.872" stroke="#00A4B8" stroke-miterlimit="10"/>
<path d="M87.103 15.5554C95.6211 43.4686 64.218 172.468 89.8734 178.034C115.529 183.6 -189.62 482.541 -202.672 518.284" stroke="#00A4B8" stroke-miterlimit="10"/>
<path d="M82.8271 9.99748C92.071 40.1257 64.5969 166.704 92.4347 172.71C120.273 178.716 -197.665 476.116 -211.825 514.69" stroke="#00A4B8" stroke-miterlimit="10"/>
<path d="M78.4867 4.43707C88.4612 36.7843 64.9855 160.929 95.0279 167.379C125.07 173.828 -205.698 469.664 -220.978 511.089" stroke="#00A4B8" stroke-miterlimit="10"/>
<path d="M74.0768 -1.12188C84.7892 33.4581 65.381 155.146 97.6421 162.04C129.903 168.934 -213.723 463.198 -230.131 507.48" stroke="#00A4B8" stroke-miterlimit="10"/>
<path d="M69.6094 -6.67453C81.0651 30.1468 65.781 149.367 100.28 156.707C134.779 164.047 -221.739 456.709 -239.284 503.864" stroke="#00A4B8" stroke-miterlimit="10"/>
<path d="M65.0822 -12.2305C77.2864 26.8407 66.1864 143.578 102.932 151.365C139.678 159.153 -229.753 450.205 -248.441 500.24" stroke="#00A4B8" stroke-miterlimit="10"/>
<path d="M60.5075 -17.7843C73.4647 23.545 66.5988 137.785 105.612 146.022C144.625 154.26 -237.754 443.68 -257.593 496.61" stroke="#00A4B8" stroke-miterlimit="10"/>
<path d="M55.8827 -23.3319C69.5956 20.2587 67.0167 131.988 108.31 140.677C149.603 149.365 -245.746 437.144 -266.741 492.97" stroke="#00A4B8" stroke-miterlimit="10"/>
<path d="M51.209 -28.8836C65.6851 16.9866 67.4379 126.186 111.02 135.327C154.603 144.468 -253.738 430.584 -275.898 489.325" stroke="#00A4B8" stroke-miterlimit="10"/>
<path d="M46.496 -34.4327C61.734 13.7192 67.8635 120.38 113.747 129.975C159.63 139.57 -261.726 424.012 -285.055 485.675" stroke="#00A4B8" stroke-miterlimit="10"/>
<path d="M41.7389 -39.977C57.7507 10.4614 68.2943 114.569 116.492 124.621C164.69 134.672 -269.701 417.424 -294.204 482.018" stroke="#00A4B8" stroke-miterlimit="10"/>
<path d="M36.9479 -45.5231C53.7285 7.21236 68.7262 108.759 119.245 119.268C169.765 129.776 -277.678 410.818 -303.362 478.358" stroke="#00A4B8" stroke-miterlimit="10"/>
<path d="M32.1183 -51.0681C49.6758 3.97793 69.1635 102.941 122.017 113.909C174.871 124.877 -285.645 404.194 -312.514 474.684" stroke="#00A4B8" stroke-miterlimit="10"/>
<path d="M27.2572 -56.6082C45.5914 0.745495 69.6046 97.1167 124.798 108.545C179.991 119.973 -293.609 397.556 -321.666 471.007" stroke="#00A4B8" stroke-miterlimit="10"/>
<path d="M22.3625 -62.1501C41.4811 -2.47551 70.0482 91.2908 127.59 103.181C185.131 115.07 -301.567 390.901 -330.819 467.325" stroke="#00A4B8" stroke-miterlimit="10"/>
<path d="M17.4418 -67.6908C37.3407 -5.68956 70.4953 85.4601 130.396 97.8137C190.297 110.167 -309.523 384.233 -339.972 463.637" stroke="#00A4B8" stroke-miterlimit="10"/>
<path d="M12.4917 -73.2259C33.1766 -8.89015 70.9455 79.6253 133.21 92.4434C195.475 105.261 -317.473 377.546 -349.125 459.941" stroke="#00A4B8" stroke-miterlimit="10"/>
<path d="M7.51233 -78.764C28.9857 -12.0868 71.4008 73.7883 136.033 87.0716C200.664 100.355 -325.425 370.849 -358.282 456.241" stroke="#00A4B8" stroke-miterlimit="10"/>
<path d="M2.51191 -84.3013C24.776 -15.2758 71.856 67.9458 138.869 81.697C205.881 95.4483 -333.369 364.132 -367.433 452.529" stroke="#00A4B8" stroke-miterlimit="10"/>
<path d="M-2.51727 -89.8327C20.5396 -18.4521 72.3084 62.1041 141.708 76.3247C211.108 90.5452 -341.31 357.405 -376.587 448.822" stroke="#00A4B8" stroke-miterlimit="10"/>
<path d="M-7.56414 -95.3671C16.284 -21.6254 72.7733 56.2508 144.563 70.9414C216.352 85.6319 -349.249 350.665 -385.741 445.104" stroke="#00A4B8" stroke-miterlimit="10"/>
<path d="M-12.6363 -100.901C12.0119 -24.7902 73.233 50.4024 147.418 65.5643C221.602 80.7261 -357.183 343.905 -394.892 441.376" stroke="#00A4B8" stroke-miterlimit="10"/>
<path d="M-17.7267 -106.428C7.71809 -27.9482 73.6968 44.5458 150.282 60.1802C226.868 75.8147 -365.116 337.137 -404.045 437.646" stroke="#00A4B8" stroke-miterlimit="10"/>
<path d="M-22.8386 -111.96C3.40634 -31.0988 74.1587 38.6848 153.154 54.7938C232.148 70.9029 -373.048 330.349 -413.202 433.911" stroke="#00A4B8" stroke-miterlimit="10"/>
<path d="M-27.9651 -117.489C-0.91849 -34.2404 74.6298 32.8227 156.036 49.4068C237.441 65.991 -380.976 323.554 -422.355 430.171" stroke="#00A4B8" stroke-miterlimit="10"/>
<path d="M-33.1103 -123.013C-5.26044 -37.3708 75.1 26.9559 158.925 44.0172C242.75 61.0785 -388.901 316.746 -431.508 426.426" stroke="#00A4B8" stroke-miterlimit="10"/>
<path d="M-38.2747 -128.541C-9.62021 -40.4992 75.5708 21.0857 161.815 38.6247C248.06 56.1636 -396.822 309.919 -440.661 422.675" stroke="#00A4B8" stroke-miterlimit="10"/>
<path d="M-43.4515 -134.067C-13.991 -43.6194 76.0433 15.2128 164.712 33.2306C253.381 51.2483 -404.743 303.085 -449.813 418.92" stroke="#00A4B8" stroke-miterlimit="10"/>
<path d="M-48.6489 -139.589C-18.381 -46.7299 76.5157 9.34009 167.613 27.8379C258.71 46.3357 -412.664 296.232 -458.97 415.157" stroke="#00A4B8" stroke-miterlimit="10"/>
<path d="M-53.8555 -145.113C-22.7789 -49.8364 76.9933 3.45603 170.526 22.4358C264.059 41.4155 -420.581 289.373 -468.122 411.388" stroke="#00A4B8" stroke-miterlimit="10"/>
<path d="M-59.0796 -150.636C-27.1932 -52.9367 77.47 -2.42647 173.438 17.0356C269.407 36.4977 -428.495 282.501 -477.276 407.621" stroke="#00A4B8" stroke-miterlimit="10"/>
<path d="M-64.3144 -156.153C-31.6169 -56.0249 77.9475 -8.30725 176.359 11.6391C274.77 31.5854 -436.406 275.613 -486.429 403.846" stroke="#00A4B8" stroke-miterlimit="10"/>
<path d="M-69.5614 -161.674C-36.0536 -59.1165 78.4301 -14.1951 179.281 6.23512C280.131 26.6653 -444.317 268.718 -495.582 400.066" stroke="#00A4B8" stroke-miterlimit="10"/>
<path d="M-74.8241 -167.195C-40.505 -62.1932 78.907 -20.0881 182.207 0.828548C285.507 21.7452 -452.225 261.805 -504.735 396.28" stroke="#00A4B8" stroke-miterlimit="10"/>
<path d="M-80.0962 -172.708C-44.9611 -65.2661 79.3931 -25.9813 185.142 -4.57772C290.892 16.8258 -460.138 254.887 -513.891 392.487" stroke="#00A4B8" stroke-miterlimit="10"/>
<path d="M-85.3815 -178.227C-49.4313 -68.3343 79.8726 -31.8797 188.078 -9.98754C296.282 11.9046 -468.044 247.956 -523.044 388.692" stroke="#00A4B8" stroke-miterlimit="10"/>
<path d="M-90.6733 -183.743C-53.907 -71.3951 80.361 -37.779 191.021 -15.3978C301.681 6.98331 -475.947 241.011 -532.196 384.894" stroke="#00A4B8" stroke-miterlimit="10"/>
<path d="M-95.9813 -189.256C-58.398 -74.4464 80.8413 -43.6785 193.962 -20.8066C307.084 2.06535 -483.85 234.058 -541.349 381.091" stroke="#00A4B8" stroke-miterlimit="10"/>
<path d="M-101.295 -194.771C-62.8937 -77.4955 81.3322 -49.5887 196.91 -26.2264C312.488 -2.86419 -491.751 227.089 -550.502 377.282" stroke="#00A4B8" stroke-miterlimit="10"/>
</g>
</svg>
